<?xml version="1.0" standalone="no"?>
<!DOCTYPE svg PUBLIC "-//W3C//DTD SVG 20010904//EN"
 "http://www.w3.org/TR/2001/REC-SVG-20010904/DTD/svg10.dtd">
<svg version="1.0" xmlns="http://www.w3.org/2000/svg"
 width="1072.000000pt" height="951.000000pt" viewBox="0 0 1072.000000 951.000000"
 preserveAspectRatio="xMidYMid meet">

<g transform="translate(0.000000,951.000000) scale(0.100000,-0.100000)"
fill="#000000" stroke="none">
<path d="M4945 9024 c-22 -9 -83 -19 -137 -24 -71 -5 -105 -13 -131 -29 -19
-11 -49 -21 -66 -21 -17 0 -57 -9 -89 -21 -38 -14 -96 -23 -173 -28 -96 -6
-122 -12 -147 -29 -16 -12 -41 -22 -54 -22 -13 0 -43 -11 -68 -24 -46 -24
-133 -52 -192 -62 -18 -2 -42 -7 -53 -9 -11 -2 -23 -4 -27 -4 -4 -1 -26 -19
-50 -42 -50 -48 -154 -99 -200 -99 -18 0 -48 -4 -66 -10 -44 -12 -137 -92
-163 -139 -11 -20 -33 -54 -48 -76 -16 -22 -61 -103 -100 -180 -133 -259 -201
-425 -201 -488 0 -59 -26 -140 -64 -199 -19 -31 -48 -82 -63 -115 -26 -55 -27
-64 -26 -193 2 -104 -2 -153 -17 -215 -32 -132 -23 -368 17 -475 4 -8 7 -29 9
-46 4 -44 44 -164 55 -164 5 0 9 -5 9 -11 0 -6 11 -33 25 -61 16 -32 25 -67
25 -96 0 -26 6 -59 14 -74 8 -15 14 -46 14 -70 0 -24 6 -56 13 -73 7 -16 11
-36 10 -43 -1 -8 4 -20 11 -29 7 -8 12 -25 13 -37 0 -11 5 -20 11 -19 7 1 10
-6 7 -18 -3 -11 2 -28 11 -38 9 -10 14 -25 11 -33 -3 -8 1 -31 10 -51 10 -25
17 -81 19 -167 4 -109 8 -136 25 -163 11 -18 22 -49 25 -68 12 -98 35 -120 38
-36 1 62 1 66 -8 95 -4 15 -2 22 7 22 8 0 15 -12 16 -27 0 -15 8 -32 15 -37 8
-6 19 -19 25 -29 8 -15 10 -10 9 25 -1 50 20 59 41 18 7 -14 13 -19 13 -12 0
20 20 3 31 -26 5 -14 12 -102 15 -196 5 -135 9 -173 21 -179 11 -7 13 -19 8
-48 -4 -22 -2 -52 3 -67 6 -15 14 -40 18 -57 l7 -30 9 40 c5 22 10 50 10 63 0
12 3 22 7 22 4 0 8 21 9 47 1 30 7 50 17 56 20 11 20 31 0 23 -13 -4 -13 -2
-5 14 5 10 10 41 10 68 0 28 9 112 20 187 11 75 23 175 25 223 10 182 17 247
31 255 8 4 14 19 14 32 0 13 5 27 10 30 6 3 10 22 10 41 0 19 5 34 10 34 6 0
10 7 10 15 0 9 7 18 15 21 8 4 15 14 15 23 0 9 8 24 18 33 46 44 75 114 88
215 3 29 13 58 20 64 8 6 14 24 14 40 0 15 5 40 11 56 7 15 11 43 10 61 -2 18
5 45 14 59 10 14 15 37 13 54 -3 16 -1 29 4 29 12 0 10 54 -3 67 -7 7 -5 16 8
28 13 14 18 36 20 84 1 36 2 79 3 95 0 16 5 35 11 42 6 7 8 17 5 22 -3 5 3 21
14 35 14 17 19 34 15 49 -4 17 0 30 14 42 12 11 21 25 21 33 0 7 5 13 12 13 6
0 21 8 32 19 42 38 151 90 176 84 18 -5 22 -3 17 9 -8 23 68 43 106 29 35 -14
50 -14 42 -1 -6 10 6 14 38 11 9 -1 20 5 23 14 5 12 9 13 20 4 11 -9 18 -8 32
5 16 14 21 14 38 1 10 -8 28 -14 39 -14 20 0 20 0 1 14 -11 8 -15 15 -9 15 7
0 19 -7 27 -16 15 -15 21 -9 18 17 -1 3 10 4 24 1 13 -2 30 0 37 5 6 5 35 11
62 12 28 1 54 6 59 11 5 5 22 6 39 3 21 -4 28 -3 23 5 -5 8 5 12 33 12 22 0
42 -4 45 -9 3 -5 20 -7 38 -5 18 1 42 3 53 4 19 1 18 2 -2 10 -13 5 -23 15
-22 22 0 10 2 10 6 0 2 -6 8 -10 12 -7 5 2 22 0 40 -5 17 -5 31 -5 31 0 0 15
25 17 39 3 12 -13 11 -14 -8 -8 -12 4 -21 2 -21 -4 0 -15 43 -14 59 2 11 10
13 9 8 -5 -4 -12 -2 -15 8 -11 8 3 12 9 9 14 -10 17 15 9 28 -9 11 -15 59 -42
74 -42 3 0 -2 7 -11 16 -26 26 -10 27 34 2 34 -19 43 -20 50 -9 7 10 13 11 30
2 17 -10 21 -9 21 4 0 8 7 15 15 15 13 0 13 4 -2 28 -10 16 -11 22 -3 15 8 -7
27 -13 43 -13 29 0 29 0 13 25 -18 28 -20 35 -7 35 5 0 11 -8 13 -17 7 -25 52
-48 75 -38 27 12 106 5 124 -11 18 -17 49 -19 49 -3 0 6 12 -3 26 -20 14 -17
32 -31 40 -31 8 0 14 -7 14 -15 0 -8 5 -15 10 -15 6 0 10 5 10 11 0 7 8 17 17
24 14 10 19 10 28 0 12 -16 85 -30 85 -16 0 5 18 0 40 -12 22 -13 39 -28 37
-37 -1 -11 6 -14 27 -12 16 2 36 -4 47 -14 11 -10 19 -12 19 -6 0 7 5 12 10
12 6 0 10 -7 10 -15 0 -14 41 -37 58 -33 14 3 75 -37 105 -69 17 -18 38 -33
48 -33 10 0 22 -8 28 -17 8 -15 13 -15 37 -4 25 11 30 10 42 -6 10 -13 16 -14
19 -5 7 17 23 15 23 -3 0 -8 4 -15 9 -15 4 0 21 -18 36 -40 15 -22 35 -40 45
-40 9 0 25 -16 36 -37 10 -21 23 -41 28 -44 5 -4 6 -16 4 -27 -4 -13 1 -27 13
-38 11 -10 18 -27 17 -38 -2 -12 2 -20 8 -19 6 1 11 -11 11 -28 0 -16 -4 -29
-9 -29 -5 0 0 -13 11 -29 17 -23 21 -44 21 -105 0 -58 5 -83 20 -108 11 -18
20 -49 20 -69 0 -19 9 -54 21 -78 11 -23 19 -50 18 -59 -3 -38 2 -73 10 -67 5
3 15 -21 21 -52 12 -60 40 -127 73 -175 10 -16 15 -32 12 -38 -3 -6 1 -13 9
-16 9 -3 16 -14 16 -23 0 -9 6 -25 14 -36 17 -25 27 -223 11 -229 -6 -3 -5 -8
3 -14 8 -5 14 -13 14 -18 0 -5 2 -13 3 -19 2 -5 6 -27 9 -48 4 -32 3 -37 -9
-27 -19 16 -28 -3 -20 -43 15 -77 29 -127 37 -127 4 0 8 -11 8 -25 0 -14 -4
-25 -10 -25 -14 0 -13 -67 1 -76 7 -4 10 -26 6 -60 -3 -29 -2 -54 3 -56 4 -2
11 -34 14 -73 3 -38 11 -71 16 -73 6 -2 10 -14 10 -27 0 -13 4 -26 9 -29 11
-7 31 63 31 113 0 22 4 41 8 41 5 0 7 52 6 115 -3 103 -1 114 12 100 9 -8 17
-15 19 -15 1 0 3 40 3 88 0 49 3 104 6 123 l7 34 -21 -24 -20 -23 0 25 c0 14
5 29 10 32 6 3 10 15 10 26 0 10 5 19 10 19 6 0 10 -12 10 -26 0 -31 15 -24
24 12 4 14 19 44 33 67 58 92 83 146 83 181 0 19 9 58 20 86 11 28 20 59 20
70 0 10 7 31 15 47 23 46 55 119 55 127 0 4 9 26 19 49 11 23 22 59 26 80 4
20 11 37 15 37 5 0 11 24 15 53 4 28 12 63 18 77 6 14 16 50 23 80 6 30 17 69
23 85 6 17 25 77 42 135 18 58 47 138 66 178 18 40 39 90 47 112 17 50 10 126
-15 151 -22 22 -24 35 -6 43 9 5 9 7 -1 12 -6 3 -10 10 -6 15 3 5 0 9 -7 9 -8
0 -9 3 0 14 28 33 -33 214 -94 277 -8 9 -15 27 -15 41 0 14 -7 31 -15 38 -8 7
-15 18 -15 25 0 7 -6 18 -13 24 -8 6 -20 29 -27 51 -7 22 -19 45 -27 51 -7 6
-13 22 -13 36 0 13 -11 45 -24 71 -12 26 -31 70 -41 97 -20 54 -140 235 -156
235 -5 0 -12 8 -16 18 -8 22 -62 84 -84 97 -52 30 -190 144 -201 165 -14 26
-150 163 -202 204 -17 13 -68 59 -113 103 -80 78 -167 133 -209 133 -12 0 -29
9 -39 20 -10 11 -23 20 -30 20 -7 0 -34 12 -61 27 -47 26 -56 28 -207 30 -138
3 -162 5 -183 22 -15 11 -49 22 -87 26 -39 4 -76 16 -99 31 -21 13 -43 24 -50
24 -6 0 -22 10 -36 23 -22 21 -33 22 -225 27 -119 3 -210 10 -222 16 -37 21
-107 24 -150 8z m120 -1742 c-3 -3 -11 0 -18 7 -9 10 -8 11 6 5 10 -3 15 -9
12 -12z m-1825 -1950 c0 -15 -2 -15 -10 -2 -13 20 -13 33 0 25 6 -3 10 -14 10
-23z m170 -574 c0 -19 -2 -20 -10 -8 -13 19 -13 30 0 30 6 0 10 -10 10 -22z"/>
<path d="M5651 7204 c0 -11 3 -14 6 -6 3 7 2 16 -1 19 -3 4 -6 -2 -5 -13z"/>
<path d="M5280 7172 c0 -5 7 -13 16 -16 10 -4 14 -1 12 6 -5 15 -28 23 -28 10z"/>
<path d="M4176 5981 c-20 -22 -86 -30 -86 -11 0 6 -7 10 -15 10 -8 0 -15 -5
-15 -11 0 -6 -7 -9 -15 -6 -8 4 -17 2 -20 -3 -4 -6 -17 -10 -31 -10 -13 0 -24
-4 -24 -10 0 -5 8 -10 17 -10 11 0 2 -12 -25 -36 -24 -20 -49 -49 -58 -65 -8
-16 -20 -29 -26 -29 -9 0 -9 3 0 12 7 7 12 20 12 30 0 10 4 18 9 18 5 0 12 8
15 17 5 13 0 11 -18 -6 -14 -13 -28 -32 -32 -43 -3 -10 -14 -18 -25 -18 -10 0
-19 -4 -19 -9 0 -5 -13 -23 -29 -40 -21 -22 -33 -50 -41 -89 -6 -31 -17 -85
-24 -120 -12 -55 -11 -62 1 -58 8 4 17 6 19 6 2 0 1 12 -2 26 -5 19 -4 25 5
20 7 -4 11 0 11 12 0 11 6 25 14 31 12 10 13 8 9 -9 -5 -20 -4 -21 15 -9 11 7
18 19 14 27 -4 12 1 14 24 8 16 -4 52 -6 79 -5 82 4 108 3 154 -6 32 -6 42 -5
37 3 -4 7 -2 12 5 12 7 0 2 9 -11 20 -19 17 -35 20 -87 18 -60 -3 -77 -10 -50
-22 6 -3 -1 -4 -17 -3 -42 3 -43 23 -2 31 50 9 182 5 198 -6 10 -8 9 -8 -4 -4
-10 3 -18 2 -18 -3 0 -5 8 -11 18 -15 9 -3 23 -9 31 -12 8 -4 11 -2 7 4 -3 5
2 13 12 17 15 7 14 9 -8 16 -19 7 -17 7 10 3 19 -3 40 -6 47 -7 7 0 10 -4 7
-9 -3 -4 7 -8 21 -8 15 0 24 4 20 10 -3 6 1 10 9 10 9 0 16 3 16 8 0 4 16 7
35 7 19 0 35 -3 35 -7 0 -12 38 -10 45 2 7 12 65 -15 65 -30 0 -5 10 -9 23 -7
17 2 22 -3 20 -20 -2 -20 2 -23 32 -23 24 0 35 -5 35 -14 0 -23 -36 -29 -190
-31 -80 -1 -157 -5 -172 -9 -16 -3 -28 -2 -28 3 0 16 -33 17 -64 3 -22 -11
-25 -17 -15 -24 10 -7 7 -8 -11 -4 -18 4 -31 -2 -47 -18 -13 -13 -38 -27 -57
-30 -19 -4 -51 -23 -75 -46 -36 -34 -40 -43 -31 -60 6 -11 15 -18 20 -15 5 3
11 1 14 -4 11 -18 206 -38 206 -21 0 11 175 5 187 -6 11 -11 191 -11 325 0 26
2 49 0 50 -5 4 -10 26 -13 101 -11 48 2 57 5 57 20 0 10 -5 23 -11 29 -7 7 -8
17 -1 28 6 12 11 14 16 6 4 -6 5 -11 2 -11 -3 0 4 -11 16 -25 12 -14 27 -25
34 -25 6 0 14 -8 17 -19 5 -21 51 -33 66 -18 20 20 4 157 -18 157 -11 0 -31
47 -31 75 0 13 -5 27 -10 30 -8 5 -7 12 1 22 11 12 9 13 -14 8 -16 -5 -27 -3
-27 3 0 15 29 42 44 42 9 0 12 10 9 28 -3 23 -2 24 6 7 8 -17 10 -16 10 12 1
17 6 44 11 59 6 15 8 34 5 41 -4 12 -9 12 -27 -1 -33 -23 -37 -21 -40 32 l-3
47 -21 -33 c-14 -22 -24 -30 -29 -22 -4 6 -13 9 -21 6 -8 -3 -14 -2 -14 3 0 5
-12 12 -26 15 -22 6 -24 9 -13 23 12 14 10 15 -17 9 -22 -5 -36 -2 -47 8 -9 9
-23 16 -31 16 -9 0 -16 5 -16 11 0 5 -5 7 -10 4 -14 -9 -90 26 -83 38 6 10
-37 5 -72 -8 l-20 -8 20 17 20 18 -20 -7 c-11 -4 -37 -9 -57 -10 -21 -2 -48
-6 -60 -10 -18 -5 -20 -4 -8 4 14 10 7 16 -14 12 -18 -4 -46 11 -40 21 4 6 3
8 -2 5 -5 -3 -30 -8 -55 -11 -25 -3 -54 -8 -65 -11 -18 -6 -18 -6 1 10 19 16
19 17 -12 10 -34 -7 -53 8 -27 23 9 5 15 15 13 21 -3 8 -11 6 -23 -8z m88 -76
c-4 -8 -10 -15 -14 -15 -5 0 -15 -3 -24 -6 -9 -3 -16 -2 -16 4 0 9 11 14 57
31 1 1 0 -6 -3 -14z m-84 -30 c-7 -8 -20 -15 -29 -15 -11 1 -8 5 9 15 32 18
35 18 20 0z m-95 -35 c-3 -5 -16 -15 -28 -21 l-22 -12 20 21 c21 22 41 30 30
12z m50 -29 c-6 -5 -23 -12 -40 -15 l-30 -6 30 14 c35 18 54 20 40 7z m-292
-46 c-3 -9 -8 -14 -10 -11 -3 3 -2 9 2 15 9 16 15 13 8 -4z m72 5 c-3 -5 -11
-10 -16 -10 -6 0 -7 5 -4 10 3 6 11 10 16 10 6 0 7 -4 4 -10z m-95 -19 c0 -14
-47 -67 -54 -61 -5 5 41 70 50 70 2 0 4 -4 4 -9z m1047 -33 c-3 -8 -6 -5 -6 6
-1 11 2 17 5 13 3 -3 4 -12 1 -19z m-830 -14 c-3 -3 -12 -4 -19 -1 -8 3 -5 6
6 6 11 1 17 -2 13 -5z m38 -24 c-3 -5 -11 -10 -16 -10 -6 0 -7 5 -4 10 3 6 11
10 16 10 6 0 7 -4 4 -10z m42 4 c-3 -3 -12 -4 -19 -1 -8 3 -5 6 6 6 11 1 17
-2 13 -5z m-74 -61 c-7 -2 -19 -2 -25 0 -7 3 -2 5 12 5 14 0 19 -2 13 -5z
m227 -203 c0 -5 -5 -10 -11 -10 -5 0 -7 5 -4 10 3 6 8 10 11 10 2 0 4 -4 4
-10z m37 -12 c0 -7 4 -22 8 -33 7 -16 6 -18 -6 -7 -7 6 -22 12 -33 12 -18 0
-19 1 -1 20 21 23 31 25 32 8z m302 -9 c11 -18 15 -19 22 -8 7 10 9 7 7 -11
-3 -21 -9 -25 -40 -28 -29 -2 -38 1 -38 12 0 20 17 29 24 14 3 -7 4 -1 1 15
-6 32 5 35 24 6z m241 -30 c0 -6 -4 -7 -10 -4 -5 3 -10 11 -10 16 0 6 5 7 10
4 6 -3 10 -11 10 -16z"/>
<path d="M6405 5970 c8 -24 -8 -26 -30 -4 -23 24 -31 9 -11 -22 17 -25 17 -26
-5 -19 -12 4 -40 15 -62 25 -39 17 -74 17 -46 0 8 -6 5 -9 -12 -12 -16 -2 -23
-9 -21 -20 4 -22 -6 -23 -28 -3 -10 9 -34 17 -54 18 -33 3 -35 2 -20 -14 14
-16 11 -17 -51 -13 -37 2 -76 6 -88 9 -19 5 -19 4 3 -9 l25 -15 -24 -1 c-24 0
-24 0 -5 -15 18 -13 17 -14 -11 -6 -35 9 -105 3 -105 -10 0 -5 -13 -9 -29 -9
-16 0 -36 -6 -43 -13 -7 -8 -31 -17 -53 -21 -22 -4 -52 -14 -67 -22 -15 -8
-44 -15 -65 -15 -21 -1 -30 -3 -20 -6 23 -6 22 -24 -3 -30 -18 -5 -24 -15 -21
-35 0 -5 -6 -8 -15 -8 -8 0 -13 -4 -10 -9 3 -5 -1 -12 -10 -15 -8 -3 -12 -10
-9 -16 3 -5 2 -10 -2 -10 -5 0 -16 -13 -26 -29 -17 -28 -17 -30 2 -36 28 -8
35 -45 9 -45 -20 0 -20 0 1 -17 27 -22 38 -125 15 -144 -18 -15 -18 -27 2 -47
15 -15 18 -14 36 12 l20 27 24 -22 c20 -19 24 -20 24 -6 0 15 37 44 45 35 2
-2 -5 -21 -16 -42 -24 -50 -16 -59 55 -58 41 0 58 -4 65 -16 8 -13 15 -14 47
-4 69 20 143 26 159 12 10 -8 19 -9 28 -3 6 6 19 11 27 11 8 0 51 4 95 8 44 3
96 6 115 6 19 -1 46 2 60 5 23 6 23 7 -10 14 -28 5 -25 6 14 3 27 -2 52 -8 56
-14 10 -16 86 -1 125 25 18 13 42 26 54 30 24 7 29 25 7 25 -9 0 -12 7 -9 19
3 10 0 22 -6 25 -5 4 -8 13 -5 20 3 9 -4 17 -18 21 -50 16 -131 56 -125 62 4
3 13 0 21 -7 9 -6 21 -10 28 -7 8 3 3 9 -12 15 -14 6 -19 11 -11 11 8 1 12 4
9 7 -4 3 -20 -2 -37 -11 -34 -17 -43 -4 -11 18 16 11 30 12 81 1 41 -8 70 -9
87 -3 19 7 29 6 42 -6 18 -16 32 -11 24 10 -4 8 6 16 26 20 24 5 29 10 20 20
-9 10 -7 13 5 11 9 -1 20 -8 25 -15 5 -9 9 -10 14 -2 4 6 12 9 17 5 5 -3 17 0
25 7 12 10 20 8 44 -9 36 -27 39 -27 33 -2 -3 11 -8 20 -12 20 -4 0 -8 10 -8
22 -1 13 -10 29 -20 36 -10 7 -17 18 -15 23 1 5 -6 9 -16 9 -29 0 -34 12 -15
33 18 20 18 20 -12 4 -29 -15 -30 -15 -77 35 -26 28 -48 56 -48 62 0 6 -5 4
-10 -4 -8 -12 -10 -10 -10 10 0 19 -12 33 -51 59 -28 18 -48 35 -45 38 6 7
-31 37 -57 46 -15 6 -17 3 -12 -13z m45 -30 c8 -5 12 -11 10 -14 -3 -2 -14 2
-24 10 -22 15 -10 19 14 4z m20 -72 c0 -15 -17 -8 -41 18 l-24 26 32 -19 c18
-10 33 -21 33 -25z m-394 7 c18 -13 18 -14 -4 -8 -12 3 -25 9 -28 14 -8 14 10
11 32 -6z m169 5 c3 -6 -1 -7 -9 -4 -18 7 -21 14 -7 14 6 0 13 -4 16 -10z
m190 -98 c-6 -7 -32 11 -44 30 -12 20 -11 20 17 -3 16 -13 28 -25 27 -27z
m169 2 c9 -24 7 -28 -9 -14 -17 14 -20 30 -6 30 5 0 12 -7 15 -16z m-304 -50
c0 -2 -9 0 -20 6 -11 6 -20 13 -20 16 0 2 9 0 20 -6 11 -6 20 -13 20 -16z
m333 -2 c4 9 6 9 6 1 2 -23 -18 -23 -29 -1 -10 21 -10 22 3 5 11 -14 16 -15
20 -5z m-1036 -8 c-3 -3 -12 -4 -19 -1 -8 3 -5 6 6 6 11 1 17 -2 13 -5z m887
-23 c-2 -3 -12 3 -22 13 -16 17 -16 18 5 5 12 -7 20 -15 17 -18z m54 -26 c-3
-3 -9 2 -12 12 -6 14 -5 15 5 6 7 -7 10 -15 7 -18z m-663 5 c-3 -5 -16 -15
-28 -21 -21 -10 -21 -9 2 10 25 23 36 27 26 11z m215 -15 c5 3 11 1 15 -5 3
-5 33 -10 65 -10 32 0 62 -4 65 -10 3 -5 1 -10 -4 -10 -6 0 -11 -4 -11 -9 0
-12 82 -20 96 -10 6 5 14 6 17 3 13 -13 -5 -24 -39 -24 -32 0 -34 -1 -20 -16
21 -21 21 -21 -16 -16 -31 5 -32 4 -18 -13 13 -16 13 -18 0 -10 -8 5 -74 8
-146 7 -110 -2 -134 0 -148 13 -9 9 -21 13 -27 9 -8 -4 -8 0 0 15 7 11 17 21
24 21 9 0 9 3 -1 9 -10 6 -10 10 2 20 8 7 21 9 27 5 7 -4 18 1 26 11 7 11 13
14 13 8 0 -6 9 -9 21 -6 12 3 18 11 15 20 -4 11 -1 11 14 3 11 -6 25 -8 30 -5z
m78 8 c-10 -2 -26 -2 -35 0 -10 3 -2 5 17 5 19 0 27 -2 18 -5z m432 -8 c7 -8
10 -21 7 -30 -4 -8 -2 -17 3 -20 6 -4 10 -10 10 -16 0 -5 -8 -1 -18 9 -10 9
-14 20 -9 23 5 4 0 16 -12 28 -14 14 -17 21 -7 21 7 0 19 -7 26 -15z m60 5 c0
-5 -2 -10 -4 -10 -3 0 -8 5 -11 10 -3 6 -1 10 4 10 6 0 11 -4 11 -10z m-743
-46 c-3 -3 -12 -4 -19 -1 -8 3 -5 6 6 6 11 1 17 -2 13 -5z m507 -20 c22 -8 20
-24 -3 -24 -10 0 -21 7 -25 15 -6 16 3 19 28 9z m-884 -28 c0 -3 -4 -8 -10
-11 -5 -3 -10 -1 -10 4 0 6 5 11 10 11 6 0 10 -2 10 -4z m790 -36 c0 -5 -4
-10 -10 -10 -5 0 -10 5 -10 10 0 6 5 10 10 10 6 0 10 -4 10 -10z m-120 -158
c0 -16 -24 -42 -39 -42 -6 0 -11 -4 -11 -9 0 -10 -118 -36 -127 -27 -3 3 4 6
16 6 46 0 77 37 106 125 5 18 8 17 30 -10 13 -17 24 -36 25 -43z m-360 31 c0
-5 11 -21 25 -37 14 -16 25 -33 25 -38 0 -15 -60 -9 -66 7 -4 8 -10 12 -15 9
-5 -3 -9 2 -9 10 0 9 5 16 10 16 6 0 10 9 10 20 0 11 5 20 10 20 6 0 10 -3 10
-7z"/>
<path d="M6178 5943 c7 -3 16 -2 19 1 4 3 -2 6 -13 5 -11 0 -14 -3 -6 -6z"/>
<path d="M6559 5931 c6 -10 7 -21 4 -25 -3 -3 -1 -6 5 -6 18 0 15 37 -3 44
-12 4 -13 2 -6 -13z"/>
<path d="M6605 5841 c-3 -5 -1 -12 5 -16 5 -3 10 1 10 9 0 18 -6 21 -15 7z"/>
<path d="M6652 5830 c0 -14 2 -19 5 -12 2 6 2 18 0 25 -3 6 -5 1 -5 -13z"/>
<path d="M6715 5810 c3 -5 10 -10 16 -10 5 0 9 5 9 10 0 6 -7 10 -16 10 -8 0
-12 -4 -9 -10z"/>
<path d="M6699 5753 c-13 -16 -12 -17 4 -4 16 13 21 21 13 21 -2 0 -10 -8 -17
-17z"/>
<path d="M3830 5582 c0 -5 -11 -14 -24 -22 -27 -14 -41 -47 -20 -47 8 0 14 5
14 11 0 16 37 46 56 46 8 0 12 5 9 10 -7 12 -35 13 -35 2z"/>
<path d="M6674 5562 c5 -8 76 -4 76 4 0 2 -18 4 -41 4 -22 0 -38 -4 -35 -8z"/>
<path d="M4218 5553 c7 -3 16 -2 19 1 4 3 -2 6 -13 5 -11 0 -14 -3 -6 -6z"/>
<path d="M6455 5510 c-3 -5 -1 -10 4 -10 6 0 11 5 11 10 0 6 -2 10 -4 10 -3 0
-8 -4 -11 -10z"/>
<path d="M4655 5280 c3 -5 -2 -10 -11 -10 -10 0 -15 -3 -11 -6 9 -9 48 6 42
17 -4 5 -11 9 -16 9 -6 0 -7 -4 -4 -10z"/>
<path d="M3207 5254 c-6 -10 -11 -102 -6 -119 1 -5 3 -37 4 -70 1 -33 3 -100
5 -150 l3 -90 8 73 c5 40 13 81 19 92 13 24 13 107 0 115 -5 3 -10 11 -10 16
0 6 4 8 8 5 8 -5 7 44 -2 81 -7 33 -22 57 -29 47z"/>
<path d="M3857 5233 c-10 -9 -9 -23 2 -23 5 0 11 7 15 15 5 15 -5 20 -17 8z"/>
<path d="M3160 5125 c0 -8 5 -15 10 -15 6 0 10 7 10 15 0 8 -4 15 -10 15 -5 0
-10 -7 -10 -15z"/>
<path d="M3290 5121 c0 -5 5 -13 10 -16 6 -3 10 -2 10 4 0 5 -4 13 -10 16 -5
3 -10 2 -10 -4z"/>
<path d="M3300 4880 c0 -5 5 -10 11 -10 5 0 7 5 4 10 -3 6 -8 10 -11 10 -2 0
-4 -4 -4 -10z"/>
<path d="M3350 4854 c0 -8 5 -12 10 -9 6 4 8 11 5 16 -9 14 -15 11 -15 -7z"/>
<path d="M6979 4724 c5 -3 6 -17 1 -34 -4 -16 -6 -31 -3 -34 3 -3 6 -18 7 -33
2 -42 20 -34 27 12 8 42 -7 87 -29 91 -7 1 -8 0 -3 -2z"/>
<path d="M3294 4634 c-7 -40 9 -81 35 -88 81 -21 84 -18 52 56 -18 43 -63 94
-48 56 8 -22 3 -23 -17 -3 -13 14 -16 12 -22 -21z"/>
<path d="M6960 4570 c0 -5 5 -10 10 -10 6 0 10 5 10 10 0 6 -4 10 -10 10 -5 0
-10 -4 -10 -10z"/>
<path d="M4700 4530 c0 -5 5 -10 10 -10 6 0 10 5 10 10 0 6 -4 10 -10 10 -5 0
-10 -4 -10 -10z"/>
<path d="M4683 4498 c-18 -23 -21 -72 -7 -107 8 -18 14 -39 14 -46 0 -13 66
-85 78 -85 3 0 13 -6 21 -13 9 -7 38 -19 65 -25 43 -11 52 -11 65 3 15 15 14
18 -8 34 -30 23 -15 34 47 33 37 -1 50 -7 69 -28 13 -15 23 -31 23 -35 0 -20
76 -30 155 -20 44 6 106 12 138 14 49 3 62 8 81 30 13 15 28 27 32 25 14 -3
54 12 54 21 0 8 108 -4 117 -13 3 -3 -5 -14 -18 -25 -21 -17 -22 -21 -9 -36
27 -33 170 -3 178 38 3 14 -2 17 -25 15 -25 -3 -28 0 -28 26 -1 36 -40 71 -90
80 -27 5 -47 2 -80 -14 -25 -12 -50 -18 -57 -14 -7 4 -10 4 -6 0 8 -10 -27
-46 -45 -46 -7 0 -31 -10 -52 -21 -48 -26 -143 -31 -195 -10 -19 8 -75 34
-124 58 -131 63 -209 59 -242 -14 -10 -21 -18 -39 -20 -41 -1 -2 -20 4 -42 13
-61 25 -77 56 -76 143 1 39 0 72 -1 72 -2 0 -7 -6 -12 -12z"/>
<path d="M6950 4454 c0 -8 5 -12 10 -9 6 3 10 10 10 16 0 5 -4 9 -10 9 -5 0
-10 -7 -10 -16z"/>
<path d="M6960 4409 c0 -5 5 -7 10 -4 6 3 10 8 10 11 0 2 -4 4 -10 4 -5 0 -10
-5 -10 -11z"/>
<path d="M3428 4275 c-4 -11 -8 -45 -10 -75 -2 -40 -8 -59 -23 -72 -11 -9 -16
-20 -12 -24 4 -5 11 -4 15 2 4 6 17 14 29 18 25 8 37 34 24 50 -5 6 -11 36
-13 66 -2 36 -5 48 -10 35z"/>
<path d="M3510 4271 c0 -11 5 -23 10 -26 6 -3 10 3 10 14 0 11 -4 23 -10 26
-5 3 -10 -3 -10 -14z"/>
<path d="M4970 4260 c0 -5 4 -10 9 -10 6 0 13 5 16 10 3 6 -1 10 -9 10 -9 0
-16 -4 -16 -10z"/>
<path d="M4946 4235 c-2 -7 2 -16 10 -19 17 -7 52 8 38 16 -26 14 -43 15 -48
3z"/>
<path d="M6946 4231 c-4 -5 -2 -11 3 -13 6 -2 5 -21 -1 -48 -5 -25 -9 -69 -8
-97 1 -32 -3 -53 -9 -53 -6 0 -11 -5 -11 -11 0 -5 4 -8 9 -4 6 3 13 -16 17
-42 l8 -48 7 40 c7 39 13 186 10 253 -1 31 -14 42 -25 23z"/>
<path d="M6915 3900 c3 -5 8 -10 11 -10 2 0 4 5 4 10 0 6 -5 10 -11 10 -5 0
-7 -4 -4 -10z"/>
<path d="M4900 3859 c-8 -4 -35 -13 -60 -20 -25 -7 -72 -25 -106 -41 -34 -15
-70 -28 -80 -28 -26 0 -124 -47 -124 -59 0 -5 -7 -11 -16 -13 -14 -3 -14 -6 3
-27 16 -20 23 -22 41 -12 29 15 81 14 132 -4 23 -8 46 -15 51 -15 16 0 10 26
-12 54 -20 25 -18 53 3 40 6 -4 5 -10 -3 -15 -11 -7 -10 -9 4 -9 9 0 17 6 17
13 0 10 36 19 120 32 114 18 127 18 248 2 76 -10 189 -16 282 -15 191 1 334
-25 290 -52 -13 -9 -13 -10 0 -10 9 0 2 -12 -18 -30 -18 -16 -37 -30 -43 -30
-5 0 -9 -4 -9 -8 0 -16 127 -5 192 17 69 22 104 21 143 -5 56 -39 60 5 6 56
-27 26 -55 41 -93 50 -29 7 -64 21 -77 31 -13 11 -28 19 -34 19 -6 0 -18 6
-26 13 -39 33 -148 50 -211 34 -14 -4 -38 -10 -55 -13 -26 -6 -27 -8 -11 -14
11 -4 -26 -6 -82 -6 -61 1 -102 5 -102 11 0 6 -4 4 -9 -3 -9 -15 -122 -19
-143 -6 -6 4 -49 7 -95 6 -49 0 -81 3 -78 9 4 5 19 9 36 9 19 0 29 5 29 15 0
8 -7 15 -15 15 -8 0 -15 4 -15 10 0 11 -58 11 -80 -1z m30 -53 c0 -11 -19 -15
-25 -6 -3 5 1 10 9 10 9 0 16 -2 16 -4z"/>
<path d="M6898 3777 c-6 -108 -9 -118 -26 -133 -8 -5 -12 -21 -9 -35 4 -23 4
-23 6 4 1 21 6 27 25 27 22 0 25 5 31 63 3 34 9 69 11 78 3 9 -2 24 -11 32 -8
9 -12 22 -9 30 3 8 1 18 -4 21 -5 3 -11 -33 -14 -87z"/>
<path d="M5035 3844 c12 -9 13 -13 3 -16 -7 -3 25 -7 71 -11 53 -3 90 -1 101
6 13 7 44 7 113 -1 67 -8 104 -9 123 -2 56 22 4 29 -209 32 -168 3 -214 1
-202 -8z"/>
<path d="M5627 3686 c-7 -17 1 -26 22 -25 12 0 11 3 -4 9 -11 5 -14 9 -7 9 6
1 12 6 12 11 0 15 -17 12 -23 -4z"/>
<path d="M6801 3433 c-1 -24 -17 -31 -23 -11 -2 6 -4 -5 -4 -25 0 -21 3 -37 7
-37 11 0 32 68 26 83 -3 6 -6 2 -6 -10z"/>
<path d="M6750 3347 c0 -7 -8 -22 -19 -33 -10 -11 -22 -30 -25 -42 -4 -12 -10
-21 -14 -21 -27 4 -40 -4 -45 -30 -5 -22 -13 -31 -36 -36 -17 -3 -36 -3 -42 1
-9 5 -10 1 -7 -14 4 -14 2 -22 -7 -22 -18 0 -16 52 4 67 13 10 14 14 2 22 -23
15 -50 0 -63 -35 -7 -21 -18 -33 -28 -31 -9 1 -16 -7 -18 -20 -2 -14 -10 -23
-22 -23 -10 0 -20 -6 -23 -14 -6 -15 -47 -11 -47 5 0 15 -49 10 -69 -8 -11 -9
-27 -18 -35 -19 -22 -3 -76 -46 -76 -61 0 -7 -11 -15 -25 -19 -14 -3 -25 -12
-25 -19 0 -7 -11 -16 -25 -19 -14 -4 -25 -11 -25 -17 0 -18 -112 -121 -142
-131 -16 -6 -28 -17 -28 -25 0 -10 -6 -13 -16 -9 -9 4 -24 0 -33 -8 -9 -8 -42
-19 -73 -26 -32 -6 -60 -16 -63 -21 -4 -5 -20 -9 -36 -9 -17 0 -32 -6 -35 -15
-4 -10 -13 -13 -25 -10 -12 4 -21 1 -25 -9 -3 -9 -14 -16 -23 -16 -9 0 -32 -8
-51 -18 -19 -11 -41 -17 -47 -15 -7 3 -13 -1 -13 -7 0 -9 -14 -11 -49 -6 -51
7 -85 0 -75 -15 3 -5 -13 -9 -35 -9 -26 0 -41 5 -41 13 0 6 -5 4 -11 -5 -10
-19 -83 -26 -93 -10 -3 5 -34 9 -70 10 -36 0 -70 4 -76 7 -6 4 -36 9 -67 11
-61 4 -75 10 -54 23 10 7 8 11 -9 16 -18 6 -27 2 -40 -15 -15 -20 -17 -20 -30
-5 -11 14 -10 17 8 21 13 4 19 11 15 21 -5 12 -7 12 -14 1 -6 -9 -30 -12 -86
-10 -65 2 -80 6 -92 22 -7 11 -18 20 -23 20 -15 0 -78 68 -78 85 0 18 3 17
-38 6 -24 -7 -32 -7 -32 4 0 30 -112 66 -136 43 -13 -14 8 -28 42 -28 33 0 34
-1 29 -36 -3 -27 -1 -35 9 -31 8 3 16 -2 19 -13 6 -24 -3 -33 -19 -19 -9 7
-14 5 -19 -10 -6 -20 -6 -20 -43 -1 -20 11 -37 23 -37 28 0 13 -50 57 -62 54
-7 -2 -13 6 -13 18 0 13 -7 20 -20 20 -11 0 -20 5 -20 11 0 7 -12 9 -31 7 -25
-4 -33 0 -42 19 -8 19 -16 23 -39 19 -19 -3 -28 0 -28 9 0 9 10 12 31 10 20
-3 29 0 26 8 -2 7 -19 10 -44 9 -34 -3 -43 1 -57 23 -9 14 -28 31 -41 37 -14
6 -22 15 -19 19 3 5 0 9 -5 9 -14 0 -14 -16 0 -42 9 -17 13 -18 20 -7 7 11 9
10 9 -3 0 -21 30 -58 46 -58 6 0 14 -9 17 -20 3 -12 14 -20 26 -20 12 0 21 -4
21 -10 0 -5 7 -10 15 -10 8 0 15 -6 15 -13 0 -16 36 -47 55 -47 9 0 20 -12 25
-26 7 -18 15 -24 28 -20 21 7 37 -4 37 -24 0 -10 8 -14 26 -12 14 2 31 -4 39
-12 7 -9 22 -16 33 -16 11 0 33 -14 49 -31 17 -17 46 -37 65 -46 20 -8 42 -21
50 -29 8 -8 25 -14 38 -14 13 0 40 -9 59 -21 20 -12 36 -17 37 -12 0 4 5 -3
10 -16 7 -17 15 -22 29 -18 13 3 20 0 20 -9 0 -8 6 -14 13 -13 6 1 42 -12 78
-29 36 -17 85 -36 110 -41 24 -6 63 -17 86 -25 36 -13 130 -21 327 -29 29 -2
41 -7 46 -22 6 -17 8 -16 14 8 6 27 8 28 72 26 36 -1 69 2 72 8 7 10 69 22
142 27 27 2 35 7 35 21 0 15 11 21 45 28 25 5 50 13 56 18 6 5 19 7 28 3 10
-4 18 0 22 10 3 9 11 15 18 14 25 -5 100 34 131 68 5 6 31 20 57 30 27 11 48
24 48 29 0 6 26 21 56 35 31 14 60 33 65 43 5 9 16 17 24 17 8 0 19 9 25 20 6
11 24 27 40 35 16 8 40 25 53 38 13 12 34 32 48 43 30 27 69 73 69 83 0 3 24
31 52 61 29 30 53 62 55 70 1 8 7 16 12 18 6 2 11 12 11 22 0 9 6 23 14 29 8
7 17 23 20 37 4 14 11 22 16 19 6 -3 10 3 10 14 0 12 3 21 8 21 12 0 43 61 36
72 -3 5 2 18 11 28 11 12 13 20 6 25 -6 3 -11 0 -11 -8z m-2140 -697 c0 -5 -4
-10 -10 -10 -5 0 -10 5 -10 10 0 6 5 10 10 10 6 0 10 -4 10 -10z"/>
<path d="M3850 3082 c0 -19 38 -53 44 -39 3 9 7 8 15 -3 5 -8 13 -11 16 -8 10
10 -4 28 -22 28 -9 0 -25 7 -35 17 -11 9 -18 11 -18 5z"/>
<path d="M6620 2778 c0 -119 -5 -187 -14 -219 -8 -25 -17 -102 -20 -170 -4
-68 -11 -162 -17 -209 -5 -47 -10 -105 -10 -130 -1 -25 -5 -67 -11 -93 -6 -26
-11 -132 -12 -235 -1 -103 -5 -199 -8 -215 -3 -15 -9 -55 -13 -90 -5 -44 -14
-72 -33 -96 -14 -19 -41 -57 -59 -84 -29 -43 -109 -141 -151 -186 -7 -7 -40
-49 -73 -92 -91 -120 -137 -201 -369 -654 -57 -110 -116 -224 -132 -252 l-29
-53 2346 0 2346 0 -6 23 c-54 188 -120 355 -212 535 -29 56 -53 109 -53 117 0
25 -40 133 -68 183 -25 44 -79 103 -153 165 -19 16 -59 51 -89 78 -30 26 -62
49 -71 49 -9 0 -24 11 -33 25 -9 14 -25 25 -35 25 -10 0 -26 11 -35 25 -10 15
-26 25 -41 25 -14 0 -29 8 -35 20 -6 11 -26 22 -48 26 -20 4 -50 17 -65 30
-16 13 -39 24 -51 24 -12 0 -37 11 -56 25 -20 15 -47 25 -66 25 -21 0 -38 7
-46 19 -8 11 -31 22 -52 26 -20 4 -50 18 -66 31 -16 14 -41 24 -58 24 -16 0
-42 10 -57 22 -18 14 -49 23 -94 28 -36 4 -84 17 -106 29 -27 14 -57 21 -95
21 -44 0 -63 5 -90 25 -19 14 -46 25 -61 25 -16 0 -34 8 -41 19 -7 10 -24 22
-38 26 -14 4 -38 18 -53 31 -16 13 -34 24 -41 24 -7 0 -25 11 -40 25 -15 14
-39 25 -53 25 -15 0 -36 11 -49 25 -14 15 -34 25 -52 25 -18 0 -36 9 -50 25
-12 14 -31 25 -41 25 -11 0 -35 9 -53 19 -18 10 -49 22 -69 25 -21 4 -48 15
-60 25 -15 11 -51 21 -93 26 -38 4 -96 16 -129 26 -33 10 -66 19 -73 19 -7 0
-29 14 -47 30 -19 17 -41 30 -50 30 -8 0 -22 11 -31 25 -9 14 -25 25 -36 25
-10 0 -25 9 -32 19 -8 11 -26 25 -41 32 -15 7 -27 15 -27 19 0 6 -61 51 -164
120 -12 8 -38 33 -57 54 -19 22 -64 71 -101 110 -37 39 -68 74 -68 78 0 4 -6
13 -12 20 -14 15 -23 30 -67 105 -17 28 -62 85 -101 125 -38 40 -70 76 -70 80
0 12 -31 38 -46 38 -12 0 -14 -30 -14 -172z"/>
<path d="M3900 2652 c-13 -32 -50 -91 -82 -132 -79 -105 -141 -168 -243 -245
-14 -11 -41 -32 -59 -47 -19 -16 -39 -28 -44 -28 -6 0 -27 -13 -45 -30 -19
-16 -40 -30 -46 -30 -6 0 -11 -3 -11 -7 0 -10 -63 -73 -105 -107 -16 -13 -46
-27 -65 -31 -19 -4 -45 -14 -57 -22 -12 -8 -52 -19 -89 -24 -37 -5 -82 -18
-99 -29 -25 -15 -50 -20 -107 -20 -42 0 -100 -5 -129 -10 -58 -11 -179 -58
-179 -70 0 -4 -15 -13 -32 -20 -18 -7 -42 -21 -53 -30 -11 -10 -40 -20 -65
-24 -25 -4 -54 -15 -65 -25 -12 -11 -44 -21 -80 -25 -33 -4 -71 -14 -85 -23
-14 -9 -49 -20 -79 -24 -34 -5 -60 -15 -72 -28 -13 -14 -32 -21 -58 -21 -27 0
-44 -7 -60 -24 -13 -14 -40 -28 -61 -31 -21 -4 -46 -15 -56 -26 -13 -15 -31
-19 -75 -19 -46 0 -63 -5 -86 -24 -15 -13 -43 -27 -61 -31 -18 -3 -37 -15 -42
-26 -6 -10 -20 -19 -31 -19 -12 0 -34 -11 -51 -25 -16 -14 -42 -28 -56 -32
-15 -3 -37 -17 -49 -30 -12 -12 -31 -23 -43 -23 -11 0 -20 -4 -20 -8 0 -7
-100 -111 -147 -153 -10 -9 -45 -47 -78 -84 -33 -38 -93 -102 -132 -143 -40
-42 -73 -81 -73 -89 0 -7 -4 -13 -8 -13 -10 0 -62 -77 -62 -91 0 -5 -9 -26
-20 -46 -11 -21 -20 -54 -20 -73 0 -20 -6 -45 -14 -56 -8 -12 -19 -66 -25
-128 -5 -60 -14 -113 -20 -119 -6 -6 -11 -31 -11 -56 0 -29 -8 -57 -20 -76
-11 -16 -20 -37 -20 -45 0 -8 -9 -32 -20 -53 -11 -20 -20 -41 -20 -47 0 -7
699 -10 2091 -10 l2090 0 -7 23 c-11 37 -296 594 -359 702 -81 140 -167 264
-256 369 -9 12 -38 45 -62 75 -27 31 -43 59 -40 68 4 11 8 12 13 2 10 -16 30
21 30 55 0 27 15 35 23 14 3 -7 6 -3 6 9 1 12 -3 25 -9 28 -17 10 -12 45 5 39
15 -6 20 10 17 46 -1 8 -4 69 -6 135 -4 121 -21 205 -66 330 -12 33 -24 76
-26 95 -5 47 -27 137 -37 146 -4 4 -7 44 -7 89 0 50 -5 86 -12 93 -8 8 -14 72
-19 197 -3 102 -7 187 -10 189 -2 2 -15 -21 -29 -52z m111 -1399 c13 -16 12
-17 -3 -4 -17 13 -22 21 -14 21 2 0 10 -8 17 -17z"/>
<path d="M4055 1221 c-3 -5 -2 -12 3 -15 5 -3 9 1 9 9 0 17 -3 19 -12 6z"/>
</g>
</svg>
